<svg xmlns="http://www.w3.org/2000/svg" xmlns:xlink="http://www.w3.org/1999/xlink" width="2000" zoomAndPan="magnify" viewBox="0 0 1500 1499.999933" height="2000" preserveAspectRatio="xMidYMid meet" version="1.0"><defs><g/><clipPath id="e2eacecd7e"><path d="M 450 253 L 1050 253 L 1050 631.511719 L 450 631.511719 Z M 450 253 " clip-rule="nonzero"/></clipPath></defs><path fill="#ffffff" d="M 527.253906 282.644531 C 645.605469 246.375 731.214844 347.746094 751.308594 381.0625 C 762.941406 355.828125 856.878906 246.917969 961.621094 278.601562 L 961.808594 298.703125 C 976.027344 296.058594 999.925781 313.425781 1004.648438 310.867188 L 1004.8125 328.453125 C 1018.273438 329.164062 1043.023438 353.222656 1045.398438 353.203125 L 1047.808594 611.96875 C 989.773438 580.683594 838.242188 577.738281 753.625 629.78125 C 634.5 583.152344 506.464844 599.417969 454.457031 622.515625 L 451.976562 356.210938 C 451.84375 342.144531 480.140625 321.613281 494.304688 313.105469 L 527.535156 312.796875 Z M 527.253906 282.644531 " fill-opacity="1" fill-rule="nonzero"/><g clip-path="url(#e2eacecd7e)"><path stroke-linecap="butt" transform="matrix(3.430199, 0, 0, 3.427812, 447.799411, 270.565034)" fill="none" stroke-linejoin="miter" d="M 88.481505 32.235571 C 82.623609 22.516132 57.666057 -7.05699 23.163231 3.523967 L 23.245224 12.32035 M 88.481505 32.235571 C 91.872799 24.873913 119.258235 -6.898589 149.793544 2.344507 L 149.848205 8.208762 M 88.481505 32.235571 L 89.156803 104.794618 M 89.156803 104.794618 C 81.429027 92.406293 68.076805 70.541259 23.811198 73.152027 L 23.245224 12.32035 M 89.156803 104.794618 C 62.643674 81.586025 37.067763 84.756323 12.862945 86.447453 L 13.557603 12.410377 M 89.156803 104.794618 C 54.428499 91.191506 17.102632 95.936698 1.940885 102.675008 L 1.217758 24.985592 C 1.179039 20.881981 9.428378 14.892372 13.557603 12.410377 M 89.156803 104.794618 C 104.210366 86.330077 145.912574 81.054982 163.012528 84.316447 L 162.385059 16.887769 M 89.156803 104.794618 C 101.979492 80.674364 135.356062 72.863714 150.441511 71.972566 L 149.848205 8.208762 M 89.156803 104.794618 C 113.825105 89.612054 158.000748 90.471294 174.919636 99.598154 L 174.217007 24.108119 C 173.524628 24.113817 166.309303 17.095171 162.385059 16.887769 M 13.557603 12.410377 C 15.771395 12.389864 20.938051 12.342002 23.245224 12.32035 M 149.848205 8.208762 C 153.993373 7.43727 160.960443 12.503822 162.337231 11.7574 L 162.385059 16.887769 " stroke="#000000" stroke-width="1" stroke-opacity="1" stroke-miterlimit="4"/></g><g fill="#000000" fill-opacity="1"><g transform="translate(519.496849, 885.036288)"><g><path d="M 92.75 -180.5 C 108.582031 -180.5 122.457031 -176.914062 134.375 -169.75 C 146.289062 -162.582031 155.539062 -152.289062 162.125 -138.875 C 168.707031 -125.457031 172 -109.164062 172 -90 C 172 -71.332031 168.625 -55 161.875 -41 C 155.125 -27 145.75 -16.082031 133.75 -8.25 C 121.75 -0.414062 108 3.5 92.5 3.5 C 76.664062 3.5 62.789062 -0.0820312 50.875 -7.25 C 38.957031 -14.414062 29.707031 -24.75 23.125 -38.25 C 16.539062 -51.75 13.25 -68 13.25 -87 C 13.25 -105.664062 16.664062 -122 23.5 -136 C 30.332031 -150 39.707031 -160.914062 51.625 -168.75 C 63.539062 -176.582031 77.25 -180.5 92.75 -180.5 Z M 91.75 -176 C 80.914062 -176 71.5 -172.25 63.5 -164.75 C 55.5 -157.25 49.289062 -146.914062 44.875 -133.75 C 40.457031 -120.582031 38.25 -105.332031 38.25 -88 C 38.25 -70.332031 40.707031 -54.957031 45.625 -41.875 C 50.539062 -28.789062 57.207031 -18.707031 65.625 -11.625 C 74.039062 -4.539062 83.332031 -1 93.5 -1 C 104.332031 -1 113.75 -4.75 121.75 -12.25 C 129.75 -19.75 135.957031 -30.125 140.375 -43.375 C 144.789062 -56.625 147 -71.832031 147 -89 C 147 -106.832031 144.539062 -122.25 139.625 -135.25 C 134.707031 -148.25 128.082031 -158.289062 119.75 -165.375 C 111.414062 -172.457031 102.082031 -176 91.75 -176 Z M 91.75 -176 "/></g></g></g><g fill="#000000" fill-opacity="1"><g transform="translate(704.744658, 885.036288)"><g><path d="M 91.25 -132.25 C 97.582031 -132.25 102.875 -131.414062 107.125 -129.75 C 111.375 -128.082031 114.914062 -125.75 117.75 -122.75 C 120.914062 -119.414062 123.164062 -115.25 124.5 -110.25 C 125.832031 -105.25 126.5 -98.5 126.5 -90 L 126.5 -23.25 C 126.5 -16.25 127.957031 -11.5 130.875 -9 C 133.789062 -6.5 138.664062 -5.25 145.5 -5.25 L 145.5 0 C 142.664062 -0.164062 138.332031 -0.375 132.5 -0.625 C 126.664062 -0.875 121 -1 115.5 -1 C 110 -1 104.625 -0.875 99.375 -0.625 C 94.125 -0.375 90.164062 -0.164062 87.5 0 L 87.5 -5.25 C 93.5 -5.25 97.75 -6.5 100.25 -9 C 102.75 -11.5 104 -16.25 104 -23.25 L 104 -95.5 C 104 -100.664062 103.582031 -105.414062 102.75 -109.75 C 101.914062 -114.082031 100.039062 -117.582031 97.125 -120.25 C 94.207031 -122.914062 89.75 -124.25 83.75 -124.25 C 76.75 -124.25 70.625 -122.25 65.375 -118.25 C 60.125 -114.25 56.039062 -108.789062 53.125 -101.875 C 50.207031 -94.957031 48.75 -87.25 48.75 -78.75 L 48.75 -23.25 C 48.75 -16.25 50 -11.5 52.5 -9 C 55 -6.5 59.25 -5.25 65.25 -5.25 L 65.25 0 C 62.582031 -0.164062 58.625 -0.375 53.375 -0.625 C 48.125 -0.875 42.75 -1 37.25 -1 C 31.75 -1 26.082031 -0.875 20.25 -0.625 C 14.414062 -0.375 10.082031 -0.164062 7.25 0 L 7.25 -5.25 C 14.082031 -5.25 18.957031 -6.5 21.875 -9 C 24.789062 -11.5 26.25 -16.25 26.25 -23.25 L 26.25 -101.5 C 26.25 -109 24.914062 -114.539062 22.25 -118.125 C 19.582031 -121.707031 14.582031 -123.5 7.25 -123.5 L 7.25 -128.75 C 12.582031 -128.25 17.75 -128 22.75 -128 C 27.582031 -128 32.207031 -128.289062 36.625 -128.875 C 41.039062 -129.457031 45.082031 -130.332031 48.75 -131.5 L 48.75 -102 C 53.082031 -113.332031 59.125 -121.207031 66.875 -125.625 C 74.625 -130.039062 82.75 -132.25 91.25 -132.25 Z M 91.25 -132.25 "/></g></g></g><g fill="#000000" fill-opacity="1"><g transform="translate(853.992883, 885.036288)"><g><path d="M 68 -132.25 C 82.664062 -132.25 94.125 -127.789062 102.375 -118.875 C 110.625 -109.957031 114.75 -96.082031 114.75 -77.25 L 26.5 -77.25 L 26.25 -82 L 90.75 -82 C 91.082031 -90.164062 90.414062 -97.707031 88.75 -104.625 C 87.082031 -111.539062 84.457031 -117.082031 80.875 -121.25 C 77.289062 -125.414062 72.664062 -127.5 67 -127.5 C 59.332031 -127.5 52.539062 -123.664062 46.625 -116 C 40.707031 -108.332031 37.164062 -96.164062 36 -79.5 L 36.75 -78.5 C 36.414062 -76 36.164062 -73.25 36 -70.25 C 35.832031 -67.25 35.75 -64.25 35.75 -61.25 C 35.75 -49.914062 37.582031 -40.164062 41.25 -32 C 44.914062 -23.832031 49.707031 -17.625 55.625 -13.375 C 61.539062 -9.125 67.664062 -7 74 -7 C 79 -7 83.75 -7.789062 88.25 -9.375 C 92.75 -10.957031 96.914062 -13.582031 100.75 -17.25 C 104.582031 -20.914062 107.914062 -25.832031 110.75 -32 L 115.75 -30 C 113.914062 -24.5 110.914062 -19.164062 106.75 -14 C 102.582031 -8.832031 97.332031 -4.625 91 -1.375 C 84.664062 1.871094 77.332031 3.5 69 3.5 C 57 3.5 46.707031 0.746094 38.125 -4.75 C 29.539062 -10.25 22.957031 -17.875 18.375 -27.625 C 13.789062 -37.375 11.5 -48.582031 11.5 -61.25 C 11.5 -75.914062 13.832031 -88.539062 18.5 -99.125 C 23.164062 -109.707031 29.75 -117.875 38.25 -123.625 C 46.75 -129.375 56.664062 -132.25 68 -132.25 Z M 68 -132.25 "/></g></g></g><g fill="#000000" fill-opacity="1"><g transform="translate(192.37969, 1084.536271)"><g><path d="M 148 -177 C 147.332031 -170.664062 146.875 -164.539062 146.625 -158.625 C 146.375 -152.707031 146.25 -148.164062 146.25 -145 C 146.25 -141 146.332031 -137.25 146.5 -133.75 C 146.664062 -130.25 146.832031 -127.164062 147 -124.5 L 141.25 -124.5 C 140.082031 -136.164062 138.5 -145.375 136.5 -152.125 C 134.5 -158.875 131 -163.75 126 -166.75 C 121 -169.75 113.25 -171.25 102.75 -171.25 L 89.25 -171.25 L 89.25 -29 C 89.25 -22.332031 89.875 -17.332031 91.125 -14 C 92.375 -10.664062 94.832031 -8.414062 98.5 -7.25 C 102.164062 -6.082031 107.5 -5.332031 114.5 -5 L 114.5 0 C 110.164062 -0.332031 104.664062 -0.539062 98 -0.625 C 91.332031 -0.707031 84.582031 -0.75 77.75 -0.75 C 70.25 -0.75 63.207031 -0.707031 56.625 -0.625 C 50.039062 -0.539062 44.75 -0.332031 40.75 0 L 40.75 -5 C 47.75 -5.332031 53.082031 -6.082031 56.75 -7.25 C 60.414062 -8.414062 62.875 -10.664062 64.125 -14 C 65.375 -17.332031 66 -22.332031 66 -29 L 66 -171.25 L 52.5 -171.25 C 42.164062 -171.25 34.457031 -169.75 29.375 -166.75 C 24.289062 -163.75 20.75 -158.875 18.75 -152.125 C 16.75 -145.375 15.164062 -136.164062 14 -124.5 L 8.25 -124.5 C 8.582031 -127.164062 8.789062 -130.25 8.875 -133.75 C 8.957031 -137.25 9 -141 9 -145 C 9 -148.164062 8.875 -152.707031 8.625 -158.625 C 8.375 -164.539062 7.914062 -170.664062 7.25 -177 C 14.25 -176.832031 21.875 -176.664062 30.125 -176.5 C 38.375 -176.332031 46.664062 -176.25 55 -176.25 C 63.332031 -176.25 70.914062 -176.25 77.75 -176.25 C 84.582031 -176.25 92.125 -176.25 100.375 -176.25 C 108.625 -176.25 116.914062 -176.332031 125.25 -176.5 C 133.582031 -176.664062 141.164062 -176.832031 148 -177 Z M 148 -177 "/></g></g></g><g fill="#000000" fill-opacity="1"><g transform="translate(347.627831, 1084.536271)"><g><path d="M 46.5 -195.75 L 46.5 -102.25 C 50.832031 -113.582031 56.875 -121.414062 64.625 -125.75 C 72.375 -130.082031 80.5 -132.25 89 -132.25 C 95.332031 -132.25 100.625 -131.414062 104.875 -129.75 C 109.125 -128.082031 112.664062 -125.75 115.5 -122.75 C 118.664062 -119.414062 120.914062 -115.25 122.25 -110.25 C 123.582031 -105.25 124.25 -98.5 124.25 -90 L 124.25 -23.25 C 124.25 -16.25 125.707031 -11.5 128.625 -9 C 131.539062 -6.5 136.414062 -5.25 143.25 -5.25 L 143.25 0 C 140.414062 -0.164062 136.082031 -0.375 130.25 -0.625 C 124.414062 -0.875 118.75 -1 113.25 -1 C 107.75 -1 102.375 -0.875 97.125 -0.625 C 91.875 -0.375 87.914062 -0.164062 85.25 0 L 85.25 -5.25 C 91.25 -5.25 95.5 -6.5 98 -9 C 100.5 -11.5 101.75 -16.25 101.75 -23.25 L 101.75 -95.5 C 101.75 -100.664062 101.332031 -105.414062 100.5 -109.75 C 99.664062 -114.082031 97.789062 -117.582031 94.875 -120.25 C 91.957031 -122.914062 87.5 -124.25 81.5 -124.25 C 74.664062 -124.25 68.625 -122.332031 63.375 -118.5 C 58.125 -114.664062 54 -109.332031 51 -102.5 C 48 -95.664062 46.5 -87.832031 46.5 -79 L 46.5 -23.25 C 46.5 -16.25 47.75 -11.5 50.25 -9 C 52.75 -6.5 57 -5.25 63 -5.25 L 63 0 C 60.332031 -0.164062 56.375 -0.375 51.125 -0.625 C 45.875 -0.875 40.5 -1 35 -1 C 29.5 -1 23.832031 -0.875 18 -0.625 C 12.164062 -0.375 7.832031 -0.164062 5 0 L 5 -5.25 C 11.832031 -5.25 16.707031 -6.5 19.625 -9 C 22.539062 -11.5 24 -16.25 24 -23.25 L 24 -165.75 C 24 -173.25 22.664062 -178.789062 20 -182.375 C 17.332031 -185.957031 12.332031 -187.75 5 -187.75 L 5 -193 C 10.332031 -192.5 15.5 -192.25 20.5 -192.25 C 25.332031 -192.25 29.957031 -192.539062 34.375 -193.125 C 38.789062 -193.707031 42.832031 -194.582031 46.5 -195.75 Z M 46.5 -195.75 "/></g></g></g><g fill="#000000" fill-opacity="1"><g transform="translate(494.626116, 1084.536271)"><g><path d="M 68.5 -132.25 C 79.164062 -132.25 88.75 -129.914062 97.25 -125.25 C 105.75 -120.582031 112.539062 -113.25 117.625 -103.25 C 122.707031 -93.25 125.25 -80.25 125.25 -64.25 C 125.25 -48.25 122.707031 -35.289062 117.625 -25.375 C 112.539062 -15.457031 105.75 -8.164062 97.25 -3.5 C 88.75 1.164062 79.164062 3.5 68.5 3.5 C 58 3.5 48.457031 1.164062 39.875 -3.5 C 31.289062 -8.164062 24.457031 -15.457031 19.375 -25.375 C 14.289062 -35.289062 11.75 -48.25 11.75 -64.25 C 11.75 -80.25 14.289062 -93.25 19.375 -103.25 C 24.457031 -113.25 31.289062 -120.582031 39.875 -125.25 C 48.457031 -129.914062 58 -132.25 68.5 -132.25 Z M 68.5 -127.25 C 59 -127.25 51.207031 -122.332031 45.125 -112.5 C 39.039062 -102.664062 36 -86.582031 36 -64.25 C 36 -41.914062 39.039062 -25.875 45.125 -16.125 C 51.207031 -6.375 59 -1.5 68.5 -1.5 C 78 -1.5 85.789062 -6.375 91.875 -16.125 C 97.957031 -25.875 101 -41.914062 101 -64.25 C 101 -86.582031 97.957031 -102.664062 91.875 -112.5 C 85.789062 -122.332031 78 -127.25 68.5 -127.25 Z M 68.5 -127.25 "/></g></g></g><g fill="#000000" fill-opacity="1"><g transform="translate(631.624494, 1084.536271)"><g><path d="M 120.75 -131.5 L 120.75 -27 C 120.75 -19.5 122.125 -13.957031 124.875 -10.375 C 127.625 -6.789062 132.582031 -5 139.75 -5 L 139.75 0.25 C 134.582031 -0.246094 129.414062 -0.5 124.25 -0.5 C 119.414062 -0.5 114.789062 -0.246094 110.375 0.25 C 105.957031 0.75 101.914062 1.664062 98.25 3 L 98.25 -26.5 C 94.082031 -15.664062 88.207031 -7.957031 80.625 -3.375 C 73.039062 1.207031 65.25 3.5 57.25 3.5 C 51.414062 3.5 46.332031 2.664062 42 1 C 37.664062 -0.664062 34.082031 -3 31.25 -6 C 28.082031 -9.332031 25.914062 -13.664062 24.75 -19 C 23.582031 -24.332031 23 -30.914062 23 -38.75 L 23 -101.5 C 23 -109 21.664062 -114.539062 19 -118.125 C 16.332031 -121.707031 11.332031 -123.5 4 -123.5 L 4 -128.75 C 9.332031 -128.25 14.5 -128 19.5 -128 C 24.332031 -128 28.957031 -128.289062 33.375 -128.875 C 37.789062 -129.457031 41.832031 -130.332031 45.5 -131.5 L 45.5 -33.25 C 45.5 -28.082031 45.832031 -23.332031 46.5 -19 C 47.164062 -14.664062 48.832031 -11.164062 51.5 -8.5 C 54.164062 -5.832031 58.5 -4.5 64.5 -4.5 C 71 -4.5 76.789062 -6.5 81.875 -10.5 C 86.957031 -14.5 90.957031 -19.914062 93.875 -26.75 C 96.789062 -33.582031 98.25 -41.25 98.25 -49.75 L 98.25 -101.5 C 98.25 -109 96.914062 -114.539062 94.25 -118.125 C 91.582031 -121.707031 86.582031 -123.5 79.25 -123.5 L 79.25 -128.75 C 84.582031 -128.25 89.75 -128 94.75 -128 C 99.582031 -128 104.207031 -128.289062 108.625 -128.875 C 113.039062 -129.457031 117.082031 -130.332031 120.75 -131.5 Z M 120.75 -131.5 "/></g></g></g><g fill="#000000" fill-opacity="1"><g transform="translate(776.872759, 1084.536271)"><g><path d="M 52 -132.25 C 58.664062 -132.25 64.332031 -131.164062 69 -129 C 73.664062 -126.832031 77.082031 -124.832031 79.25 -123 C 84.75 -118.5 88.082031 -121.5 89.25 -132 L 95 -132 C 94.664062 -127.332031 94.414062 -121.789062 94.25 -115.375 C 94.082031 -108.957031 94 -100.332031 94 -89.5 L 88.25 -89.5 C 87.25 -95.664062 85.539062 -101.664062 83.125 -107.5 C 80.707031 -113.332031 77.164062 -118.125 72.5 -121.875 C 67.832031 -125.625 61.75 -127.5 54.25 -127.5 C 48.414062 -127.5 43.539062 -125.875 39.625 -122.625 C 35.707031 -119.375 33.75 -114.582031 33.75 -108.25 C 33.75 -103.25 35.25 -98.957031 38.25 -95.375 C 41.25 -91.789062 45.164062 -88.457031 50 -85.375 C 54.832031 -82.289062 60.082031 -78.914062 65.75 -75.25 C 72.082031 -71.25 77.832031 -67.164062 83 -63 C 88.164062 -58.832031 92.289062 -54.25 95.375 -49.25 C 98.457031 -44.25 100 -38.332031 100 -31.5 C 100 -23.832031 98 -17.414062 94 -12.25 C 90 -7.082031 84.789062 -3.164062 78.375 -0.5 C 71.957031 2.164062 64.914062 3.5 57.25 3.5 C 53.582031 3.5 50.125 3.207031 46.875 2.625 C 43.625 2.039062 40.5 1.164062 37.5 0 C 35.832031 -0.832031 34.125 -1.832031 32.375 -3 C 30.625 -4.164062 28.914062 -5.414062 27.25 -6.75 C 25.582031 -8.082031 24.082031 -8.039062 22.75 -6.625 C 21.414062 -5.207031 20.414062 -2.414062 19.75 1.75 L 14 1.75 C 14.332031 -3.582031 14.582031 -10.082031 14.75 -17.75 C 14.914062 -25.414062 15 -35.582031 15 -48.25 L 20.75 -48.25 C 21.914062 -38.914062 23.582031 -30.75 25.75 -23.75 C 27.914062 -16.75 31.332031 -11.289062 36 -7.375 C 40.664062 -3.457031 47.164062 -1.5 55.5 -1.5 C 58.832031 -1.5 62.207031 -2.25 65.625 -3.75 C 69.039062 -5.25 71.914062 -7.75 74.25 -11.25 C 76.582031 -14.75 77.75 -19.414062 77.75 -25.25 C 77.75 -32.582031 75.082031 -38.582031 69.75 -43.25 C 64.414062 -47.914062 57.664062 -52.832031 49.5 -58 C 43.5 -61.832031 37.875 -65.664062 32.625 -69.5 C 27.375 -73.332031 23.125 -77.664062 19.875 -82.5 C 16.625 -87.332031 15 -93.164062 15 -100 C 15 -107.5 16.707031 -113.625 20.125 -118.375 C 23.539062 -123.125 28.082031 -126.625 33.75 -128.875 C 39.414062 -131.125 45.5 -132.25 52 -132.25 Z M 52 -132.25 "/></g></g></g><g fill="#000000" fill-opacity="1"><g transform="translate(888.621468, 1084.536271)"><g><path d="M 42.75 1.75 C 35.914062 1.75 30 0.457031 25 -2.125 C 20 -4.707031 16.207031 -8.332031 13.625 -13 C 11.039062 -17.664062 9.75 -23.082031 9.75 -29.25 C 9.75 -36.582031 11.457031 -42.582031 14.875 -47.25 C 18.289062 -51.914062 22.664062 -55.664062 28 -58.5 C 33.332031 -61.332031 38.957031 -63.707031 44.875 -65.625 C 50.789062 -67.539062 56.414062 -69.375 61.75 -71.125 C 67.082031 -72.875 71.457031 -74.914062 74.875 -77.25 C 78.289062 -79.582031 80 -82.664062 80 -86.5 L 80 -102 C 80 -109 78.957031 -114.332031 76.875 -118 C 74.789062 -121.664062 72 -124.125 68.5 -125.375 C 65 -126.625 61.082031 -127.25 56.75 -127.25 C 52.582031 -127.25 48.125 -126.664062 43.375 -125.5 C 38.625 -124.332031 34.832031 -121.914062 32 -118.25 C 35.164062 -117.582031 37.914062 -115.914062 40.25 -113.25 C 42.582031 -110.582031 43.75 -107.164062 43.75 -103 C 43.75 -98.832031 42.414062 -95.539062 39.75 -93.125 C 37.082031 -90.707031 33.664062 -89.5 29.5 -89.5 C 24.664062 -89.5 21.125 -91.039062 18.875 -94.125 C 16.625 -97.207031 15.5 -100.664062 15.5 -104.5 C 15.5 -108.832031 16.582031 -112.332031 18.75 -115 C 20.914062 -117.664062 23.664062 -120.164062 27 -122.5 C 30.832031 -125.164062 35.789062 -127.457031 41.875 -129.375 C 47.957031 -131.289062 54.832031 -132.25 62.5 -132.25 C 69.332031 -132.25 75.164062 -131.457031 80 -129.875 C 84.832031 -128.289062 88.832031 -126 92 -123 C 96.332031 -119 99.164062 -114.125 100.5 -108.375 C 101.832031 -102.625 102.5 -95.75 102.5 -87.75 L 102.5 -18.25 C 102.5 -14.082031 103.125 -11.082031 104.375 -9.25 C 105.625 -7.414062 107.582031 -6.5 110.25 -6.5 C 112.082031 -6.5 113.832031 -6.914062 115.5 -7.75 C 117.164062 -8.582031 119.164062 -9.914062 121.5 -11.75 L 124.25 -7.5 C 120.75 -4.832031 117.414062 -2.625 114.25 -0.875 C 111.082031 0.871094 106.832031 1.75 101.5 1.75 C 96.664062 1.75 92.664062 0.914062 89.5 -0.75 C 86.332031 -2.414062 83.957031 -4.875 82.375 -8.125 C 80.789062 -11.375 80 -15.5 80 -20.5 C 75.5 -13 70.125 -7.414062 63.875 -3.75 C 57.625 -0.0820312 50.582031 1.75 42.75 1.75 Z M 51.75 -8.25 C 57.25 -8.25 62.375 -9.832031 67.125 -13 C 71.875 -16.164062 76.164062 -20.914062 80 -27.25 L 80 -76.25 C 78 -73.414062 75.082031 -71.039062 71.25 -69.125 C 67.414062 -67.207031 63.25 -65.289062 58.75 -63.375 C 54.25 -61.457031 49.957031 -59.207031 45.875 -56.625 C 41.789062 -54.039062 38.414062 -50.664062 35.75 -46.5 C 33.082031 -42.332031 31.75 -36.914062 31.75 -30.25 C 31.75 -23.582031 33.539062 -18.25 37.125 -14.25 C 40.707031 -10.25 45.582031 -8.25 51.75 -8.25 Z M 51.75 -8.25 "/></g></g></g><g fill="#000000" fill-opacity="1"><g transform="translate(1013.120038, 1084.536271)"><g><path d="M 91.25 -132.25 C 97.582031 -132.25 102.875 -131.414062 107.125 -129.75 C 111.375 -128.082031 114.914062 -125.75 117.75 -122.75 C 120.914062 -119.414062 123.164062 -115.25 124.5 -110.25 C 125.832031 -105.25 126.5 -98.5 126.5 -90 L 126.5 -23.25 C 126.5 -16.25 127.957031 -11.5 130.875 -9 C 133.789062 -6.5 138.664062 -5.25 145.5 -5.25 L 145.5 0 C 142.664062 -0.164062 138.332031 -0.375 132.5 -0.625 C 126.664062 -0.875 121 -1 115.5 -1 C 110 -1 104.625 -0.875 99.375 -0.625 C 94.125 -0.375 90.164062 -0.164062 87.5 0 L 87.5 -5.25 C 93.5 -5.25 97.75 -6.5 100.25 -9 C 102.75 -11.5 104 -16.25 104 -23.25 L 104 -95.5 C 104 -100.664062 103.582031 -105.414062 102.75 -109.75 C 101.914062 -114.082031 100.039062 -117.582031 97.125 -120.25 C 94.207031 -122.914062 89.75 -124.25 83.75 -124.25 C 76.75 -124.25 70.625 -122.25 65.375 -118.25 C 60.125 -114.25 56.039062 -108.789062 53.125 -101.875 C 50.207031 -94.957031 48.75 -87.25 48.75 -78.75 L 48.75 -23.25 C 48.75 -16.25 50 -11.5 52.5 -9 C 55 -6.5 59.25 -5.25 65.25 -5.25 L 65.25 0 C 62.582031 -0.164062 58.625 -0.375 53.375 -0.625 C 48.125 -0.875 42.75 -1 37.25 -1 C 31.75 -1 26.082031 -0.875 20.25 -0.625 C 14.414062 -0.375 10.082031 -0.164062 7.25 0 L 7.25 -5.25 C 14.082031 -5.25 18.957031 -6.5 21.875 -9 C 24.789062 -11.5 26.25 -16.25 26.25 -23.25 L 26.25 -101.5 C 26.25 -109 24.914062 -114.539062 22.25 -118.125 C 19.582031 -121.707031 14.582031 -123.5 7.25 -123.5 L 7.25 -128.75 C 12.582031 -128.25 17.75 -128 22.75 -128 C 27.582031 -128 32.207031 -128.289062 36.625 -128.875 C 41.039062 -129.457031 45.082031 -130.332031 48.75 -131.5 L 48.75 -102 C 53.082031 -113.332031 59.125 -121.207031 66.875 -125.625 C 74.625 -130.039062 82.75 -132.25 91.25 -132.25 Z M 91.25 -132.25 "/></g></g></g><g fill="#000000" fill-opacity="1"><g transform="translate(1162.368195, 1084.536271)"><g><path d="M 121 -196 L 121 -27.25 C 121 -19.75 122.375 -14.207031 125.125 -10.625 C 127.875 -7.039062 132.832031 -5.25 140 -5.25 L 140 0 C 134.832031 -0.5 129.664062 -0.75 124.5 -0.75 C 119.664062 -0.75 115.039062 -0.5 110.625 0 C 106.207031 0.5 102.164062 1.414062 98.5 2.75 L 98.5 -166 C 98.5 -173.5 97.164062 -179.039062 94.5 -182.625 C 91.832031 -186.207031 86.832031 -188 79.5 -188 L 79.5 -193.25 C 84.832031 -192.75 90 -192.5 95 -192.5 C 99.832031 -192.5 104.457031 -192.789062 108.875 -193.375 C 113.289062 -193.957031 117.332031 -194.832031 121 -196 Z M 68.5 -132.25 C 75.832031 -132.25 82.707031 -130.5 89.125 -127 C 95.539062 -123.5 99.832031 -117.5 102 -109 L 98.75 -106.5 C 96.414062 -113.5 92.789062 -118.582031 87.875 -121.75 C 82.957031 -124.914062 77.164062 -126.5 70.5 -126.5 C 60.664062 -126.5 52.457031 -121.414062 45.875 -111.25 C 39.289062 -101.082031 36.082031 -85.414062 36.25 -64.25 C 36.25 -50.75 37.539062 -39.539062 40.125 -30.625 C 42.707031 -21.707031 46.539062 -15.039062 51.625 -10.625 C 56.707031 -6.207031 62.914062 -4 70.25 -4 C 77.25 -4 83.582031 -7 89.25 -13 C 94.914062 -19 98.332031 -27.832031 99.5 -39.5 L 102.5 -36 C 101.164062 -23.332031 97.125 -13.582031 90.375 -6.75 C 83.625 0.0820312 74.5 3.5 63 3.5 C 52.664062 3.5 43.625 0.996094 35.875 -4 C 28.125 -9 22.207031 -16.5 18.125 -26.5 C 14.039062 -36.5 12 -49.082031 12 -64.25 C 12 -79.414062 14.625 -92.039062 19.875 -102.125 C 25.125 -112.207031 32.039062 -119.75 40.625 -124.75 C 49.207031 -129.75 58.5 -132.25 68.5 -132.25 Z M 68.5 -132.25 "/></g></g></g><g fill="#000000" fill-opacity="1"><g transform="translate(502.32971, 1229.88621)"><g><path d="M 111.796875 -72.796875 L 87.25 0 L 79.140625 0 L 57.828125 -62.09375 L 36.40625 0 L 28.390625 0 L 3.84375 -72.796875 L 11.75 -72.796875 L 32.765625 -10.1875 L 54.5 -72.796875 L 61.671875 -72.796875 L 83.09375 -9.875 L 104.421875 -72.796875 Z M 111.796875 -72.796875 "/></g></g></g><g fill="#000000" fill-opacity="1"><g transform="translate(636.481074, 1229.88621)"><g><path d="M 43.6875 0.625 C 36.46875 0.625 29.925781 -0.984375 24.0625 -4.203125 C 18.207031 -7.429688 13.632812 -11.851562 10.34375 -17.46875 C 7.050781 -23.082031 5.40625 -29.394531 5.40625 -36.40625 C 5.40625 -43.40625 7.050781 -49.710938 10.34375 -55.328125 C 13.632812 -60.941406 18.207031 -65.359375 24.0625 -68.578125 C 29.925781 -71.804688 36.46875 -73.421875 43.6875 -73.421875 C 50.894531 -73.421875 57.390625 -71.828125 63.171875 -68.640625 C 68.960938 -65.453125 73.519531 -61.03125 76.84375 -55.375 C 80.175781 -49.726562 81.84375 -43.40625 81.84375 -36.40625 C 81.84375 -29.394531 80.175781 -23.0625 76.84375 -17.40625 C 73.519531 -11.757812 68.960938 -7.34375 63.171875 -4.15625 C 57.390625 -0.96875 50.894531 0.625 43.6875 0.625 Z M 43.6875 -6.234375 C 49.4375 -6.234375 54.632812 -7.535156 59.28125 -10.140625 C 63.925781 -12.742188 67.566406 -16.347656 70.203125 -20.953125 C 72.835938 -25.566406 74.15625 -30.71875 74.15625 -36.40625 C 74.15625 -42.082031 72.835938 -47.226562 70.203125 -51.84375 C 67.566406 -56.457031 63.925781 -60.0625 59.28125 -62.65625 C 54.632812 -65.257812 49.4375 -66.5625 43.6875 -66.5625 C 37.925781 -66.5625 32.707031 -65.257812 28.03125 -62.65625 C 23.351562 -60.0625 19.675781 -56.457031 17 -51.84375 C 14.332031 -47.226562 13 -42.082031 13 -36.40625 C 13 -30.71875 14.332031 -25.566406 17 -20.953125 C 19.675781 -16.347656 23.351562 -12.742188 28.03125 -10.140625 C 32.707031 -7.535156 37.925781 -6.234375 43.6875 -6.234375 Z M 43.6875 -6.234375 "/></g></g></g><g fill="#000000" fill-opacity="1"><g transform="translate(744.530479, 1229.88621)"><g><path d="M 61.5625 0 L 44.921875 -23.40625 C 43.054688 -23.195312 41.117188 -23.09375 39.109375 -23.09375 L 19.546875 -23.09375 L 19.546875 0 L 11.859375 0 L 11.859375 -72.796875 L 39.109375 -72.796875 C 48.398438 -72.796875 55.675781 -70.578125 60.9375 -66.140625 C 66.207031 -61.703125 68.84375 -55.601562 68.84375 -47.84375 C 68.84375 -42.15625 67.40625 -37.351562 64.53125 -33.4375 C 61.65625 -29.519531 57.546875 -26.691406 52.203125 -24.953125 L 69.984375 0 Z M 38.890625 -29.640625 C 46.109375 -29.640625 51.625 -31.234375 55.4375 -34.421875 C 59.25 -37.609375 61.15625 -42.082031 61.15625 -47.84375 C 61.15625 -53.738281 59.25 -58.257812 55.4375 -61.40625 C 51.625 -64.5625 46.109375 -66.140625 38.890625 -66.140625 L 19.546875 -66.140625 L 19.546875 -29.640625 Z M 38.890625 -29.640625 "/></g></g></g><g fill="#000000" fill-opacity="1"><g transform="translate(840.51683, 1229.88621)"><g><path d="M 34.421875 -34.21875 L 19.546875 -19.140625 L 19.546875 0 L 11.859375 0 L 11.859375 -72.796875 L 19.546875 -72.796875 L 19.546875 -28.8125 L 62.296875 -72.796875 L 71.140625 -72.796875 L 39.625 -39.828125 L 73.3125 0 L 64.171875 0 Z M 34.421875 -34.21875 "/></g></g></g><g fill="#000000" fill-opacity="1"><g transform="translate(933.695304, 1229.88621)"><g><path d="M 31.921875 0.625 C 26.515625 0.625 21.332031 -0.238281 16.375 -1.96875 C 11.414062 -3.707031 7.585938 -6 4.890625 -8.84375 L 7.90625 -14.765625 C 10.539062 -12.128906 14.039062 -9.992188 18.40625 -8.359375 C 22.769531 -6.734375 27.273438 -5.921875 31.921875 -5.921875 C 38.441406 -5.921875 43.332031 -7.117188 46.59375 -9.515625 C 49.851562 -11.910156 51.484375 -15.015625 51.484375 -18.828125 C 51.484375 -21.734375 50.597656 -24.050781 48.828125 -25.78125 C 47.054688 -27.519531 44.890625 -28.859375 42.328125 -29.796875 C 39.765625 -30.734375 36.191406 -31.753906 31.609375 -32.859375 C 26.140625 -34.242188 21.773438 -35.578125 18.515625 -36.859375 C 15.253906 -38.148438 12.460938 -40.113281 10.140625 -42.75 C 7.816406 -45.382812 6.65625 -48.953125 6.65625 -53.453125 C 6.65625 -57.128906 7.625 -60.472656 9.5625 -63.484375 C 11.507812 -66.503906 14.492188 -68.914062 18.515625 -70.71875 C 22.535156 -72.519531 27.523438 -73.421875 33.484375 -73.421875 C 37.648438 -73.421875 41.722656 -72.847656 45.703125 -71.703125 C 49.691406 -70.554688 53.144531 -68.976562 56.0625 -66.96875 L 53.453125 -60.84375 C 50.398438 -62.851562 47.140625 -64.359375 43.671875 -65.359375 C 40.210938 -66.367188 36.816406 -66.875 33.484375 -66.875 C 27.109375 -66.875 22.304688 -65.640625 19.078125 -63.171875 C 15.859375 -60.710938 14.25 -57.539062 14.25 -53.65625 C 14.25 -50.75 15.128906 -48.410156 16.890625 -46.640625 C 18.660156 -44.867188 20.878906 -43.515625 23.546875 -42.578125 C 26.222656 -41.648438 29.8125 -40.628906 34.3125 -39.515625 C 39.65625 -38.203125 43.972656 -36.90625 47.265625 -35.625 C 50.554688 -34.34375 53.347656 -32.398438 55.640625 -29.796875 C 57.929688 -27.191406 59.078125 -23.671875 59.078125 -19.234375 C 59.078125 -15.566406 58.085938 -12.222656 56.109375 -9.203125 C 54.128906 -6.191406 51.09375 -3.800781 47 -2.03125 C 42.914062 -0.257812 37.890625 0.625 31.921875 0.625 Z M 31.921875 0.625 "/></g></g></g></svg>